<mxfile host="app.diagrams.net" modified="2023-05-10T14:53:16.292Z" agent="Mozilla/5.0 (X11; Linux x86_64) AppleWebKit/537.36 (KHTML, like Gecko) Chrome/109.0.0.0 Safari/537.36" etag="tszRkgk_I5OwYp8T-H-E" version="21.2.3" type="device">
  <diagram id="C5RBs43oDa-KdzZeNtuy" name="Page-1">
    <mxGraphModel dx="3567" dy="803" grid="1" gridSize="10" guides="1" tooltips="1" connect="1" arrows="1" fold="1" page="1" pageScale="1" pageWidth="1920" pageHeight="1200" math="0" shadow="0">
      <root>
        <mxCell id="WIyWlLk6GJQsqaUBKTNV-0" />
        <mxCell id="WIyWlLk6GJQsqaUBKTNV-1" parent="WIyWlLk6GJQsqaUBKTNV-0" />
        <mxCell id="zkfFHV4jXpPFQw0GAbJ--0" value="User" style="swimlane;fontStyle=2;align=center;verticalAlign=top;childLayout=stackLayout;horizontal=1;startSize=26;horizontalStack=0;resizeParent=1;resizeLast=0;collapsible=1;marginBottom=0;rounded=0;shadow=0;strokeWidth=1;" parent="WIyWlLk6GJQsqaUBKTNV-1" vertex="1">
          <mxGeometry x="360" y="177" width="160" height="398" as="geometry">
            <mxRectangle x="230" y="140" width="160" height="26" as="alternateBounds" />
          </mxGeometry>
        </mxCell>
        <mxCell id="zkfFHV4jXpPFQw0GAbJ--1" value="id: Long" style="text;align=left;verticalAlign=top;spacingLeft=4;spacingRight=4;overflow=hidden;rotatable=0;points=[[0,0.5],[1,0.5]];portConstraint=eastwest;" parent="zkfFHV4jXpPFQw0GAbJ--0" vertex="1">
          <mxGeometry y="26" width="160" height="26" as="geometry" />
        </mxCell>
        <mxCell id="zkfFHV4jXpPFQw0GAbJ--2" value="email: String" style="text;align=left;verticalAlign=top;spacingLeft=4;spacingRight=4;overflow=hidden;rotatable=0;points=[[0,0.5],[1,0.5]];portConstraint=eastwest;rounded=0;shadow=0;html=0;" parent="zkfFHV4jXpPFQw0GAbJ--0" vertex="1">
          <mxGeometry y="52" width="160" height="26" as="geometry" />
        </mxCell>
        <mxCell id="zkfFHV4jXpPFQw0GAbJ--3" value="password: String" style="text;align=left;verticalAlign=top;spacingLeft=4;spacingRight=4;overflow=hidden;rotatable=0;points=[[0,0.5],[1,0.5]];portConstraint=eastwest;rounded=0;shadow=0;html=0;" parent="zkfFHV4jXpPFQw0GAbJ--0" vertex="1">
          <mxGeometry y="78" width="160" height="26" as="geometry" />
        </mxCell>
        <mxCell id="98TtHMbzd4gQQStBklup-7" value="name: String" style="text;align=left;verticalAlign=top;spacingLeft=4;spacingRight=4;overflow=hidden;rotatable=0;points=[[0,0.5],[1,0.5]];portConstraint=eastwest;rounded=0;shadow=0;html=0;" parent="zkfFHV4jXpPFQw0GAbJ--0" vertex="1">
          <mxGeometry y="104" width="160" height="26" as="geometry" />
        </mxCell>
        <mxCell id="Q7E6lYtqht5gNRH_L15U-13" value="recoveryPhrase: String" style="text;align=left;verticalAlign=top;spacingLeft=4;spacingRight=4;overflow=hidden;rotatable=0;points=[[0,0.5],[1,0.5]];portConstraint=eastwest;rounded=0;shadow=0;html=0;" parent="zkfFHV4jXpPFQw0GAbJ--0" vertex="1">
          <mxGeometry y="130" width="160" height="26" as="geometry" />
        </mxCell>
        <mxCell id="Q7E6lYtqht5gNRH_L15U-14" value="image: String" style="text;align=left;verticalAlign=top;spacingLeft=4;spacingRight=4;overflow=hidden;rotatable=0;points=[[0,0.5],[1,0.5]];portConstraint=eastwest;rounded=0;shadow=0;html=0;" parent="zkfFHV4jXpPFQw0GAbJ--0" vertex="1">
          <mxGeometry y="156" width="160" height="26" as="geometry" />
        </mxCell>
        <mxCell id="98TtHMbzd4gQQStBklup-8" value="phone: String" style="text;align=left;verticalAlign=top;spacingLeft=4;spacingRight=4;overflow=hidden;rotatable=0;points=[[0,0.5],[1,0.5]];portConstraint=eastwest;rounded=0;shadow=0;html=0;" parent="zkfFHV4jXpPFQw0GAbJ--0" vertex="1">
          <mxGeometry y="182" width="160" height="26" as="geometry" />
        </mxCell>
        <mxCell id="Q7E6lYtqht5gNRH_L15U-15" value="address: String" style="text;align=left;verticalAlign=top;spacingLeft=4;spacingRight=4;overflow=hidden;rotatable=0;points=[[0,0.5],[1,0.5]];portConstraint=eastwest;rounded=0;shadow=0;html=0;" parent="zkfFHV4jXpPFQw0GAbJ--0" vertex="1">
          <mxGeometry y="208" width="160" height="26" as="geometry" />
        </mxCell>
        <mxCell id="98TtHMbzd4gQQStBklup-9" value="gender: Boolean" style="text;align=left;verticalAlign=top;spacingLeft=4;spacingRight=4;overflow=hidden;rotatable=0;points=[[0,0.5],[1,0.5]];portConstraint=eastwest;rounded=0;shadow=0;html=0;" parent="zkfFHV4jXpPFQw0GAbJ--0" vertex="1">
          <mxGeometry y="234" width="160" height="26" as="geometry" />
        </mxCell>
        <mxCell id="Q7E6lYtqht5gNRH_L15U-16" value="birthdate: LocalDateTime" style="text;align=left;verticalAlign=top;spacingLeft=4;spacingRight=4;overflow=hidden;rotatable=0;points=[[0,0.5],[1,0.5]];portConstraint=eastwest;rounded=0;shadow=0;html=0;" parent="zkfFHV4jXpPFQw0GAbJ--0" vertex="1">
          <mxGeometry y="260" width="160" height="26" as="geometry" />
        </mxCell>
        <mxCell id="98TtHMbzd4gQQStBklup-10" value="active: Boolean" style="text;align=left;verticalAlign=top;spacingLeft=4;spacingRight=4;overflow=hidden;rotatable=0;points=[[0,0.5],[1,0.5]];portConstraint=eastwest;rounded=0;shadow=0;html=0;" parent="zkfFHV4jXpPFQw0GAbJ--0" vertex="1">
          <mxGeometry y="286" width="160" height="26" as="geometry" />
        </mxCell>
        <mxCell id="98TtHMbzd4gQQStBklup-11" value="role: String" style="text;align=left;verticalAlign=top;spacingLeft=4;spacingRight=4;overflow=hidden;rotatable=0;points=[[0,0.5],[1,0.5]];portConstraint=eastwest;rounded=0;shadow=0;html=0;" parent="zkfFHV4jXpPFQw0GAbJ--0" vertex="1">
          <mxGeometry y="312" width="160" height="26" as="geometry" />
        </mxCell>
        <mxCell id="Q7E6lYtqht5gNRH_L15U-17" value="createTime: LocalDateTime" style="text;align=left;verticalAlign=top;spacingLeft=4;spacingRight=4;overflow=hidden;rotatable=0;points=[[0,0.5],[1,0.5]];portConstraint=eastwest;rounded=0;shadow=0;html=0;" parent="zkfFHV4jXpPFQw0GAbJ--0" vertex="1">
          <mxGeometry y="338" width="160" height="26" as="geometry" />
        </mxCell>
        <mxCell id="Q7E6lYtqht5gNRH_L15U-18" value="updateTime: LocalDateTime" style="text;align=left;verticalAlign=top;spacingLeft=4;spacingRight=4;overflow=hidden;rotatable=0;points=[[0,0.5],[1,0.5]];portConstraint=eastwest;rounded=0;shadow=0;html=0;" parent="zkfFHV4jXpPFQw0GAbJ--0" vertex="1">
          <mxGeometry y="364" width="160" height="26" as="geometry" />
        </mxCell>
        <mxCell id="98TtHMbzd4gQQStBklup-74" value="" style="line;html=1;strokeWidth=1;align=left;verticalAlign=middle;spacingTop=-1;spacingLeft=3;spacingRight=3;rotatable=0;labelPosition=right;points=[];portConstraint=eastwest;" parent="zkfFHV4jXpPFQw0GAbJ--0" vertex="1">
          <mxGeometry y="390" width="160" height="8" as="geometry" />
        </mxCell>
        <mxCell id="98TtHMbzd4gQQStBklup-51" value="&lt;&lt;Interface&gt;&gt;&#xa;UserService" style="swimlane;fontStyle=2;align=center;verticalAlign=top;childLayout=stackLayout;horizontal=1;startSize=40;horizontalStack=0;resizeParent=1;resizeLast=0;collapsible=1;marginBottom=0;rounded=0;shadow=0;strokeWidth=1;" parent="WIyWlLk6GJQsqaUBKTNV-1" vertex="1">
          <mxGeometry x="200" y="618" width="480" height="230" as="geometry">
            <mxRectangle x="230" y="140" width="160" height="26" as="alternateBounds" />
          </mxGeometry>
        </mxCell>
        <mxCell id="98TtHMbzd4gQQStBklup-58" value="" style="line;html=1;strokeWidth=1;align=left;verticalAlign=middle;spacingTop=-1;spacingLeft=3;spacingRight=3;rotatable=0;labelPosition=right;points=[];portConstraint=eastwest;" parent="98TtHMbzd4gQQStBklup-51" vertex="1">
          <mxGeometry y="40" width="480" height="8" as="geometry" />
        </mxCell>
        <mxCell id="98TtHMbzd4gQQStBklup-59" value="find(String email): User" style="text;align=left;verticalAlign=top;spacingLeft=4;spacingRight=4;overflow=hidden;rotatable=0;points=[[0,0.5],[1,0.5]];portConstraint=eastwest;rounded=0;shadow=0;html=0;" parent="98TtHMbzd4gQQStBklup-51" vertex="1">
          <mxGeometry y="48" width="480" height="26" as="geometry" />
        </mxCell>
        <mxCell id="98TtHMbzd4gQQStBklup-60" value="profile(String email): ProfileResponse" style="text;align=left;verticalAlign=top;spacingLeft=4;spacingRight=4;overflow=hidden;rotatable=0;points=[[0,0.5],[1,0.5]];portConstraint=eastwest;rounded=0;shadow=0;html=0;" parent="98TtHMbzd4gQQStBklup-51" vertex="1">
          <mxGeometry y="74" width="480" height="26" as="geometry" />
        </mxCell>
        <mxCell id="98TtHMbzd4gQQStBklup-62" value="login(UserLoginForm userLoginForm): LoginResponse" style="text;align=left;verticalAlign=top;spacingLeft=4;spacingRight=4;overflow=hidden;rotatable=0;points=[[0,0.5],[1,0.5]];portConstraint=eastwest;rounded=0;shadow=0;html=0;" parent="98TtHMbzd4gQQStBklup-51" vertex="1">
          <mxGeometry y="100" width="480" height="26" as="geometry" />
        </mxCell>
        <mxCell id="98TtHMbzd4gQQStBklup-63" value="register(UserRegisterForm userRegisterForm): ProfileResponse" style="text;align=left;verticalAlign=top;spacingLeft=4;spacingRight=4;overflow=hidden;rotatable=0;points=[[0,0.5],[1,0.5]];portConstraint=eastwest;rounded=0;shadow=0;html=0;" parent="98TtHMbzd4gQQStBklup-51" vertex="1">
          <mxGeometry y="126" width="480" height="26" as="geometry" />
        </mxCell>
        <mxCell id="Q7E6lYtqht5gNRH_L15U-21" value="update(UserUpdateForm userUpdateForm, String principalName): ProfileResponse" style="text;align=left;verticalAlign=top;spacingLeft=4;spacingRight=4;overflow=hidden;rotatable=0;points=[[0,0.5],[1,0.5]];portConstraint=eastwest;rounded=0;shadow=0;html=0;" parent="98TtHMbzd4gQQStBklup-51" vertex="1">
          <mxGeometry y="152" width="480" height="26" as="geometry" />
        </mxCell>
        <mxCell id="Q7E6lYtqht5gNRH_L15U-22" value="recover(UserRecoverForm userRecoverForm): UserRecoverResponse" style="text;align=left;verticalAlign=top;spacingLeft=4;spacingRight=4;overflow=hidden;rotatable=0;points=[[0,0.5],[1,0.5]];portConstraint=eastwest;rounded=0;shadow=0;html=0;" parent="98TtHMbzd4gQQStBklup-51" vertex="1">
          <mxGeometry y="178" width="480" height="26" as="geometry" />
        </mxCell>
        <mxCell id="Q7E6lYtqht5gNRH_L15U-23" value="deactivate(String principalName): ProfileResponse" style="text;align=left;verticalAlign=top;spacingLeft=4;spacingRight=4;overflow=hidden;rotatable=0;points=[[0,0.5],[1,0.5]];portConstraint=eastwest;rounded=0;shadow=0;html=0;" parent="98TtHMbzd4gQQStBklup-51" vertex="1">
          <mxGeometry y="204" width="480" height="26" as="geometry" />
        </mxCell>
        <mxCell id="98TtHMbzd4gQQStBklup-61" value="" style="endArrow=classic;dashed=1;html=1;rounded=0;exitX=0.5;exitY=1;exitDx=0;exitDy=0;endFill=1;entryX=0.5;entryY=0;entryDx=0;entryDy=0;" parent="WIyWlLk6GJQsqaUBKTNV-1" source="zkfFHV4jXpPFQw0GAbJ--0" target="98TtHMbzd4gQQStBklup-51" edge="1">
          <mxGeometry width="50" height="50" relative="1" as="geometry">
            <mxPoint x="414" y="580" as="sourcePoint" />
            <mxPoint x="374" y="588" as="targetPoint" />
          </mxGeometry>
        </mxCell>
        <mxCell id="98TtHMbzd4gQQStBklup-75" value="Cart" style="swimlane;fontStyle=2;align=center;verticalAlign=top;childLayout=stackLayout;horizontal=1;startSize=26;horizontalStack=0;resizeParent=1;resizeLast=0;collapsible=1;marginBottom=0;rounded=0;shadow=0;strokeWidth=1;" parent="WIyWlLk6GJQsqaUBKTNV-1" vertex="1">
          <mxGeometry x="-106" y="823" width="160" height="86" as="geometry">
            <mxRectangle x="230" y="140" width="160" height="26" as="alternateBounds" />
          </mxGeometry>
        </mxCell>
        <mxCell id="98TtHMbzd4gQQStBklup-76" value="cartId: Long" style="text;align=left;verticalAlign=top;spacingLeft=4;spacingRight=4;overflow=hidden;rotatable=0;points=[[0,0.5],[1,0.5]];portConstraint=eastwest;" parent="98TtHMbzd4gQQStBklup-75" vertex="1">
          <mxGeometry y="26" width="160" height="26" as="geometry" />
        </mxCell>
        <mxCell id="98TtHMbzd4gQQStBklup-77" value="userId: Long" style="text;align=left;verticalAlign=top;spacingLeft=4;spacingRight=4;overflow=hidden;rotatable=0;points=[[0,0.5],[1,0.5]];portConstraint=eastwest;rounded=0;shadow=0;html=0;" parent="98TtHMbzd4gQQStBklup-75" vertex="1">
          <mxGeometry y="52" width="160" height="26" as="geometry" />
        </mxCell>
        <mxCell id="98TtHMbzd4gQQStBklup-78" value="" style="line;html=1;strokeWidth=1;align=left;verticalAlign=middle;spacingTop=-1;spacingLeft=3;spacingRight=3;rotatable=0;labelPosition=right;points=[];portConstraint=eastwest;" parent="98TtHMbzd4gQQStBklup-75" vertex="1">
          <mxGeometry y="78" width="160" height="8" as="geometry" />
        </mxCell>
        <mxCell id="98TtHMbzd4gQQStBklup-87" value="" style="endArrow=classic;dashed=1;html=1;rounded=0;exitX=0.5;exitY=1;exitDx=0;exitDy=0;endFill=1;entryX=0.5;entryY=0;entryDx=0;entryDy=0;" parent="WIyWlLk6GJQsqaUBKTNV-1" source="98TtHMbzd4gQQStBklup-75" target="98TtHMbzd4gQQStBklup-88" edge="1">
          <mxGeometry width="50" height="50" relative="1" as="geometry">
            <mxPoint x="-136" y="923" as="sourcePoint" />
            <mxPoint x="-176" y="923" as="targetPoint" />
          </mxGeometry>
        </mxCell>
        <mxCell id="98TtHMbzd4gQQStBklup-88" value="&lt;&lt;Interface&gt;&gt;&#xa;CartService" style="swimlane;fontStyle=2;align=center;verticalAlign=top;childLayout=stackLayout;horizontal=1;startSize=40;horizontalStack=0;resizeParent=1;resizeLast=0;collapsible=1;marginBottom=0;rounded=0;shadow=0;strokeWidth=1;" parent="WIyWlLk6GJQsqaUBKTNV-1" vertex="1">
          <mxGeometry x="-266" y="943" width="480" height="204" as="geometry">
            <mxRectangle x="230" y="140" width="160" height="26" as="alternateBounds" />
          </mxGeometry>
        </mxCell>
        <mxCell id="98TtHMbzd4gQQStBklup-89" value="" style="line;html=1;strokeWidth=1;align=left;verticalAlign=middle;spacingTop=-1;spacingLeft=3;spacingRight=3;rotatable=0;labelPosition=right;points=[];portConstraint=eastwest;" parent="98TtHMbzd4gQQStBklup-88" vertex="1">
          <mxGeometry y="40" width="480" height="8" as="geometry" />
        </mxCell>
        <mxCell id="98TtHMbzd4gQQStBklup-90" value="get(String principalName): Cart" style="text;align=left;verticalAlign=top;spacingLeft=4;spacingRight=4;overflow=hidden;rotatable=0;points=[[0,0.5],[1,0.5]];portConstraint=eastwest;rounded=0;shadow=0;html=0;" parent="98TtHMbzd4gQQStBklup-88" vertex="1">
          <mxGeometry y="48" width="480" height="26" as="geometry" />
        </mxCell>
        <mxCell id="98TtHMbzd4gQQStBklup-91" value="mergeLocal(Collection&lt;OrderDetailForm&gt; orderDetailForms, String principalName): Cart" style="text;align=left;verticalAlign=top;spacingLeft=4;spacingRight=4;overflow=hidden;rotatable=0;points=[[0,0.5],[1,0.5]];portConstraint=eastwest;rounded=0;shadow=0;html=0;" parent="98TtHMbzd4gQQStBklup-88" vertex="1">
          <mxGeometry y="74" width="480" height="26" as="geometry" />
        </mxCell>
        <mxCell id="98TtHMbzd4gQQStBklup-92" value="add(OrderDetailForm orderDetailForm, String principalName): Cart" style="text;align=left;verticalAlign=top;spacingLeft=4;spacingRight=4;overflow=hidden;rotatable=0;points=[[0,0.5],[1,0.5]];portConstraint=eastwest;rounded=0;shadow=0;html=0;" parent="98TtHMbzd4gQQStBklup-88" vertex="1">
          <mxGeometry y="100" width="480" height="26" as="geometry" />
        </mxCell>
        <mxCell id="Q7E6lYtqht5gNRH_L15U-24" value="update(String productCode, Integer quantity, String principalName): OrderDetail" style="text;align=left;verticalAlign=top;spacingLeft=4;spacingRight=4;overflow=hidden;rotatable=0;points=[[0,0.5],[1,0.5]];portConstraint=eastwest;rounded=0;shadow=0;html=0;" parent="98TtHMbzd4gQQStBklup-88" vertex="1">
          <mxGeometry y="126" width="480" height="26" as="geometry" />
        </mxCell>
        <mxCell id="98TtHMbzd4gQQStBklup-93" value="delete(String productCode, String principalName): void" style="text;align=left;verticalAlign=top;spacingLeft=4;spacingRight=4;overflow=hidden;rotatable=0;points=[[0,0.5],[1,0.5]];portConstraint=eastwest;rounded=0;shadow=0;html=0;" parent="98TtHMbzd4gQQStBklup-88" vertex="1">
          <mxGeometry y="152" width="480" height="26" as="geometry" />
        </mxCell>
        <mxCell id="Q7E6lYtqht5gNRH_L15U-25" value="checkout(String principalName): void" style="text;align=left;verticalAlign=top;spacingLeft=4;spacingRight=4;overflow=hidden;rotatable=0;points=[[0,0.5],[1,0.5]];portConstraint=eastwest;rounded=0;shadow=0;html=0;" parent="98TtHMbzd4gQQStBklup-88" vertex="1">
          <mxGeometry y="178" width="480" height="26" as="geometry" />
        </mxCell>
        <mxCell id="98TtHMbzd4gQQStBklup-94" value="ProductCategory" style="swimlane;fontStyle=2;align=center;verticalAlign=top;childLayout=stackLayout;horizontal=1;startSize=26;horizontalStack=0;resizeParent=1;resizeLast=0;collapsible=1;marginBottom=0;rounded=0;shadow=0;strokeWidth=1;" parent="WIyWlLk6GJQsqaUBKTNV-1" vertex="1">
          <mxGeometry x="835" y="21" width="210" height="216" as="geometry">
            <mxRectangle x="230" y="140" width="160" height="26" as="alternateBounds" />
          </mxGeometry>
        </mxCell>
        <mxCell id="98TtHMbzd4gQQStBklup-95" value="productCategoryId: Long" style="text;align=left;verticalAlign=top;spacingLeft=4;spacingRight=4;overflow=hidden;rotatable=0;points=[[0,0.5],[1,0.5]];portConstraint=eastwest;" parent="98TtHMbzd4gQQStBklup-94" vertex="1">
          <mxGeometry y="26" width="210" height="26" as="geometry" />
        </mxCell>
        <mxCell id="98TtHMbzd4gQQStBklup-96" value="productCategoryCode: String" style="text;align=left;verticalAlign=top;spacingLeft=4;spacingRight=4;overflow=hidden;rotatable=0;points=[[0,0.5],[1,0.5]];portConstraint=eastwest;rounded=0;shadow=0;html=0;" parent="98TtHMbzd4gQQStBklup-94" vertex="1">
          <mxGeometry y="52" width="210" height="26" as="geometry" />
        </mxCell>
        <mxCell id="Q7E6lYtqht5gNRH_L15U-6" value="productCategoryName: String" style="text;align=left;verticalAlign=top;spacingLeft=4;spacingRight=4;overflow=hidden;rotatable=0;points=[[0,0.5],[1,0.5]];portConstraint=eastwest;rounded=0;shadow=0;html=0;" parent="98TtHMbzd4gQQStBklup-94" vertex="1">
          <mxGeometry y="78" width="210" height="26" as="geometry" />
        </mxCell>
        <mxCell id="Q7E6lYtqht5gNRH_L15U-7" value="productCategoryDescription: String" style="text;align=left;verticalAlign=top;spacingLeft=4;spacingRight=4;overflow=hidden;rotatable=0;points=[[0,0.5],[1,0.5]];portConstraint=eastwest;rounded=0;shadow=0;html=0;" parent="98TtHMbzd4gQQStBklup-94" vertex="1">
          <mxGeometry y="104" width="210" height="26" as="geometry" />
        </mxCell>
        <mxCell id="Q7E6lYtqht5gNRH_L15U-8" value="productCategoryImage: String" style="text;align=left;verticalAlign=top;spacingLeft=4;spacingRight=4;overflow=hidden;rotatable=0;points=[[0,0.5],[1,0.5]];portConstraint=eastwest;rounded=0;shadow=0;html=0;" parent="98TtHMbzd4gQQStBklup-94" vertex="1">
          <mxGeometry y="130" width="210" height="26" as="geometry" />
        </mxCell>
        <mxCell id="98TtHMbzd4gQQStBklup-107" value="createTime: LocalDateTime" style="text;align=left;verticalAlign=top;spacingLeft=4;spacingRight=4;overflow=hidden;rotatable=0;points=[[0,0.5],[1,0.5]];portConstraint=eastwest;rounded=0;shadow=0;html=0;" parent="98TtHMbzd4gQQStBklup-94" vertex="1">
          <mxGeometry y="156" width="210" height="26" as="geometry" />
        </mxCell>
        <mxCell id="98TtHMbzd4gQQStBklup-108" value="updateTime: LocalDateTime" style="text;align=left;verticalAlign=top;spacingLeft=4;spacingRight=4;overflow=hidden;rotatable=0;points=[[0,0.5],[1,0.5]];portConstraint=eastwest;rounded=0;shadow=0;html=0;" parent="98TtHMbzd4gQQStBklup-94" vertex="1">
          <mxGeometry y="182" width="210" height="26" as="geometry" />
        </mxCell>
        <mxCell id="98TtHMbzd4gQQStBklup-97" value="" style="line;html=1;strokeWidth=1;align=left;verticalAlign=middle;spacingTop=-1;spacingLeft=3;spacingRight=3;rotatable=0;labelPosition=right;points=[];portConstraint=eastwest;" parent="98TtHMbzd4gQQStBklup-94" vertex="1">
          <mxGeometry y="208" width="210" height="8" as="geometry" />
        </mxCell>
        <mxCell id="98TtHMbzd4gQQStBklup-98" value="" style="endArrow=classic;dashed=1;html=1;rounded=0;endFill=1;entryX=0.5;entryY=0;entryDx=0;entryDy=0;exitX=0.5;exitY=1;exitDx=0;exitDy=0;" parent="WIyWlLk6GJQsqaUBKTNV-1" source="98TtHMbzd4gQQStBklup-94" target="98TtHMbzd4gQQStBklup-99" edge="1">
          <mxGeometry width="50" height="50" relative="1" as="geometry">
            <mxPoint x="840" y="240" as="sourcePoint" />
            <mxPoint x="880" y="273" as="targetPoint" />
          </mxGeometry>
        </mxCell>
        <mxCell id="98TtHMbzd4gQQStBklup-99" value="&lt;&lt;Interface&gt;&gt;&#xa;ProductCategoryService" style="swimlane;fontStyle=2;align=center;verticalAlign=top;childLayout=stackLayout;horizontal=1;startSize=40;horizontalStack=0;resizeParent=1;resizeLast=0;collapsible=1;marginBottom=0;rounded=0;shadow=0;strokeWidth=1;" parent="WIyWlLk6GJQsqaUBKTNV-1" vertex="1">
          <mxGeometry x="560" y="273" width="760" height="242" as="geometry">
            <mxRectangle x="230" y="140" width="160" height="26" as="alternateBounds" />
          </mxGeometry>
        </mxCell>
        <mxCell id="98TtHMbzd4gQQStBklup-100" value="" style="line;html=1;strokeWidth=1;align=left;verticalAlign=middle;spacingTop=-1;spacingLeft=3;spacingRight=3;rotatable=0;labelPosition=right;points=[];portConstraint=eastwest;" parent="98TtHMbzd4gQQStBklup-99" vertex="1">
          <mxGeometry y="40" width="760" height="8" as="geometry" />
        </mxCell>
        <mxCell id="98TtHMbzd4gQQStBklup-101" value="find(String productCategoryCode): ProductCategory" style="text;align=left;verticalAlign=top;spacingLeft=4;spacingRight=4;overflow=hidden;rotatable=0;points=[[0,0.5],[1,0.5]];portConstraint=eastwest;rounded=0;shadow=0;html=0;" parent="98TtHMbzd4gQQStBklup-99" vertex="1">
          <mxGeometry y="48" width="760" height="26" as="geometry" />
        </mxCell>
        <mxCell id="98TtHMbzd4gQQStBklup-102" value="findAll(Pageable pageable): Page&lt;ProductCategory&gt;" style="text;align=left;verticalAlign=top;spacingLeft=4;spacingRight=4;overflow=hidden;rotatable=0;points=[[0,0.5],[1,0.5]];portConstraint=eastwest;rounded=0;shadow=0;html=0;" parent="98TtHMbzd4gQQStBklup-99" vertex="1">
          <mxGeometry y="74" width="760" height="26" as="geometry" />
        </mxCell>
        <mxCell id="98TtHMbzd4gQQStBklup-103" value="update(String productCategoryCode, ProductCategoryForm productCategoryForm): ProductCategory" style="text;align=left;verticalAlign=top;spacingLeft=4;spacingRight=4;overflow=hidden;rotatable=0;points=[[0,0.5],[1,0.5]];portConstraint=eastwest;rounded=0;shadow=0;html=0;" parent="98TtHMbzd4gQQStBklup-99" vertex="1">
          <mxGeometry y="100" width="760" height="26" as="geometry" />
        </mxCell>
        <mxCell id="98TtHMbzd4gQQStBklup-104" value="update(ProductCategory productCategory): ProductCategory" style="text;align=left;verticalAlign=top;spacingLeft=4;spacingRight=4;overflow=hidden;rotatable=0;points=[[0,0.5],[1,0.5]];portConstraint=eastwest;rounded=0;shadow=0;html=0;" parent="98TtHMbzd4gQQStBklup-99" vertex="1">
          <mxGeometry y="126" width="760" height="26" as="geometry" />
        </mxCell>
        <mxCell id="98TtHMbzd4gQQStBklup-109" value="create(ProductCategoryForm productCategoryForm): ProductCategory" style="text;align=left;verticalAlign=top;spacingLeft=4;spacingRight=4;overflow=hidden;rotatable=0;points=[[0,0.5],[1,0.5]];portConstraint=eastwest;rounded=0;shadow=0;html=0;" parent="98TtHMbzd4gQQStBklup-99" vertex="1">
          <mxGeometry y="152" width="760" height="26" as="geometry" />
        </mxCell>
        <mxCell id="98TtHMbzd4gQQStBklup-110" value="delete(String productCategoryCode): void" style="text;align=left;verticalAlign=top;spacingLeft=4;spacingRight=4;overflow=hidden;rotatable=0;points=[[0,0.5],[1,0.5]];portConstraint=eastwest;rounded=0;shadow=0;html=0;" parent="98TtHMbzd4gQQStBklup-99" vertex="1">
          <mxGeometry y="178" width="760" height="32" as="geometry" />
        </mxCell>
        <mxCell id="Q7E6lYtqht5gNRH_L15U-10" value="predict(String modelApi, String productCategoryCode, ForecastForm forecastForm, String authenticationEmail, Boolean isCustomer): String" style="text;align=left;verticalAlign=top;spacingLeft=4;spacingRight=4;overflow=hidden;rotatable=0;points=[[0,0.5],[1,0.5]];portConstraint=eastwest;rounded=0;shadow=0;html=0;" parent="98TtHMbzd4gQQStBklup-99" vertex="1">
          <mxGeometry y="210" width="760" height="32" as="geometry" />
        </mxCell>
        <mxCell id="98TtHMbzd4gQQStBklup-111" value="Product" style="swimlane;fontStyle=2;align=center;verticalAlign=top;childLayout=stackLayout;horizontal=1;startSize=26;horizontalStack=0;resizeParent=1;resizeLast=0;collapsible=1;marginBottom=0;rounded=0;shadow=0;strokeWidth=1;" parent="WIyWlLk6GJQsqaUBKTNV-1" vertex="1">
          <mxGeometry x="1357" y="177" width="180" height="320" as="geometry">
            <mxRectangle x="230" y="140" width="160" height="26" as="alternateBounds" />
          </mxGeometry>
        </mxCell>
        <mxCell id="98TtHMbzd4gQQStBklup-112" value="productId: Long" style="text;align=left;verticalAlign=top;spacingLeft=4;spacingRight=4;overflow=hidden;rotatable=0;points=[[0,0.5],[1,0.5]];portConstraint=eastwest;" parent="98TtHMbzd4gQQStBklup-111" vertex="1">
          <mxGeometry y="26" width="180" height="26" as="geometry" />
        </mxCell>
        <mxCell id="98TtHMbzd4gQQStBklup-113" value="productCode: String" style="text;align=left;verticalAlign=top;spacingLeft=4;spacingRight=4;overflow=hidden;rotatable=0;points=[[0,0.5],[1,0.5]];portConstraint=eastwest;rounded=0;shadow=0;html=0;" parent="98TtHMbzd4gQQStBklup-111" vertex="1">
          <mxGeometry y="52" width="180" height="26" as="geometry" />
        </mxCell>
        <mxCell id="Q7E6lYtqht5gNRH_L15U-0" value="productName: String" style="text;align=left;verticalAlign=top;spacingLeft=4;spacingRight=4;overflow=hidden;rotatable=0;points=[[0,0.5],[1,0.5]];portConstraint=eastwest;rounded=0;shadow=0;html=0;" parent="98TtHMbzd4gQQStBklup-111" vertex="1">
          <mxGeometry y="78" width="180" height="26" as="geometry" />
        </mxCell>
        <mxCell id="98TtHMbzd4gQQStBklup-114" value="productPrice: BigDecimal" style="text;align=left;verticalAlign=top;spacingLeft=4;spacingRight=4;overflow=hidden;rotatable=0;points=[[0,0.5],[1,0.5]];portConstraint=eastwest;rounded=0;shadow=0;html=0;" parent="98TtHMbzd4gQQStBklup-111" vertex="1">
          <mxGeometry y="104" width="180" height="26" as="geometry" />
        </mxCell>
        <mxCell id="98TtHMbzd4gQQStBklup-115" value="productPeriod: Integer" style="text;align=left;verticalAlign=top;spacingLeft=4;spacingRight=4;overflow=hidden;rotatable=0;points=[[0,0.5],[1,0.5]];portConstraint=eastwest;rounded=0;shadow=0;html=0;" parent="98TtHMbzd4gQQStBklup-111" vertex="1">
          <mxGeometry y="130" width="180" height="26" as="geometry" />
        </mxCell>
        <mxCell id="98TtHMbzd4gQQStBklup-116" value="productDescription: String" style="text;align=left;verticalAlign=top;spacingLeft=4;spacingRight=4;overflow=hidden;rotatable=0;points=[[0,0.5],[1,0.5]];portConstraint=eastwest;rounded=0;shadow=0;html=0;" parent="98TtHMbzd4gQQStBklup-111" vertex="1">
          <mxGeometry y="156" width="180" height="26" as="geometry" />
        </mxCell>
        <mxCell id="98TtHMbzd4gQQStBklup-127" value="productIcon: String" style="text;align=left;verticalAlign=top;spacingLeft=4;spacingRight=4;overflow=hidden;rotatable=0;points=[[0,0.5],[1,0.5]];portConstraint=eastwest;rounded=0;shadow=0;html=0;" parent="98TtHMbzd4gQQStBklup-111" vertex="1">
          <mxGeometry y="182" width="180" height="26" as="geometry" />
        </mxCell>
        <mxCell id="98TtHMbzd4gQQStBklup-131" value="productStatus: Integer" style="text;align=left;verticalAlign=top;spacingLeft=4;spacingRight=4;overflow=hidden;rotatable=0;points=[[0,0.5],[1,0.5]];portConstraint=eastwest;rounded=0;shadow=0;html=0;" parent="98TtHMbzd4gQQStBklup-111" vertex="1">
          <mxGeometry y="208" width="180" height="26" as="geometry" />
        </mxCell>
        <mxCell id="98TtHMbzd4gQQStBklup-132" value="productCategoryCode: String" style="text;align=left;verticalAlign=top;spacingLeft=4;spacingRight=4;overflow=hidden;rotatable=0;points=[[0,0.5],[1,0.5]];portConstraint=eastwest;rounded=0;shadow=0;html=0;" parent="98TtHMbzd4gQQStBklup-111" vertex="1">
          <mxGeometry y="234" width="180" height="26" as="geometry" />
        </mxCell>
        <mxCell id="98TtHMbzd4gQQStBklup-133" value="createTime: LocalDateTime" style="text;align=left;verticalAlign=top;spacingLeft=4;spacingRight=4;overflow=hidden;rotatable=0;points=[[0,0.5],[1,0.5]];portConstraint=eastwest;rounded=0;shadow=0;html=0;" parent="98TtHMbzd4gQQStBklup-111" vertex="1">
          <mxGeometry y="260" width="180" height="26" as="geometry" />
        </mxCell>
        <mxCell id="98TtHMbzd4gQQStBklup-134" value="updateTime: LocalDateTime" style="text;align=left;verticalAlign=top;spacingLeft=4;spacingRight=4;overflow=hidden;rotatable=0;points=[[0,0.5],[1,0.5]];portConstraint=eastwest;rounded=0;shadow=0;html=0;" parent="98TtHMbzd4gQQStBklup-111" vertex="1">
          <mxGeometry y="286" width="180" height="26" as="geometry" />
        </mxCell>
        <mxCell id="98TtHMbzd4gQQStBklup-117" value="" style="line;html=1;strokeWidth=1;align=left;verticalAlign=middle;spacingTop=-1;spacingLeft=3;spacingRight=3;rotatable=0;labelPosition=right;points=[];portConstraint=eastwest;" parent="98TtHMbzd4gQQStBklup-111" vertex="1">
          <mxGeometry y="312" width="180" height="8" as="geometry" />
        </mxCell>
        <mxCell id="98TtHMbzd4gQQStBklup-118" value="" style="endArrow=classic;dashed=1;html=1;rounded=0;exitX=0.5;exitY=1;exitDx=0;exitDy=0;endFill=1;entryX=0.5;entryY=0;entryDx=0;entryDy=0;" parent="WIyWlLk6GJQsqaUBKTNV-1" source="98TtHMbzd4gQQStBklup-111" edge="1">
          <mxGeometry width="50" height="50" relative="1" as="geometry">
            <mxPoint x="1304" y="551" as="sourcePoint" />
            <mxPoint x="1447" y="536" as="targetPoint" />
          </mxGeometry>
        </mxCell>
        <mxCell id="98TtHMbzd4gQQStBklup-119" value="&lt;&lt;Interface&gt;&gt;&#xa;ProductService" style="swimlane;fontStyle=2;align=center;verticalAlign=top;childLayout=stackLayout;horizontal=1;startSize=40;horizontalStack=0;resizeParent=1;resizeLast=0;collapsible=1;marginBottom=0;rounded=0;shadow=0;strokeWidth=1;" parent="WIyWlLk6GJQsqaUBKTNV-1" vertex="1">
          <mxGeometry x="1060" y="537" width="760" height="368" as="geometry">
            <mxRectangle x="230" y="140" width="160" height="26" as="alternateBounds" />
          </mxGeometry>
        </mxCell>
        <mxCell id="98TtHMbzd4gQQStBklup-120" value="" style="line;html=1;strokeWidth=1;align=left;verticalAlign=middle;spacingTop=-1;spacingLeft=3;spacingRight=3;rotatable=0;labelPosition=right;points=[];portConstraint=eastwest;" parent="98TtHMbzd4gQQStBklup-119" vertex="1">
          <mxGeometry y="40" width="760" height="8" as="geometry" />
        </mxCell>
        <mxCell id="98TtHMbzd4gQQStBklup-121" value="find(String productCode): Product" style="text;align=left;verticalAlign=top;spacingLeft=4;spacingRight=4;overflow=hidden;rotatable=0;points=[[0,0.5],[1,0.5]];portConstraint=eastwest;rounded=0;shadow=0;html=0;" parent="98TtHMbzd4gQQStBklup-119" vertex="1">
          <mxGeometry y="48" width="760" height="26" as="geometry" />
        </mxCell>
        <mxCell id="98TtHMbzd4gQQStBklup-122" value="findAll(Pageable pageable): Page&lt;Product&gt;" style="text;align=left;verticalAlign=top;spacingLeft=4;spacingRight=4;overflow=hidden;rotatable=0;points=[[0,0.5],[1,0.5]];portConstraint=eastwest;rounded=0;shadow=0;html=0;" parent="98TtHMbzd4gQQStBklup-119" vertex="1">
          <mxGeometry y="74" width="760" height="26" as="geometry" />
        </mxCell>
        <mxCell id="98TtHMbzd4gQQStBklup-123" value="findAllByProductStatus(Integer productStatus, Pageable pageable): Page&lt;Product&gt;" style="text;align=left;verticalAlign=top;spacingLeft=4;spacingRight=4;overflow=hidden;rotatable=0;points=[[0,0.5],[1,0.5]];portConstraint=eastwest;rounded=0;shadow=0;html=0;" parent="98TtHMbzd4gQQStBklup-119" vertex="1">
          <mxGeometry y="100" width="760" height="26" as="geometry" />
        </mxCell>
        <mxCell id="98TtHMbzd4gQQStBklup-124" value="findAllByProductCategoryCode(String productCategoryCode, Pageable pageable): Page&lt;Product&gt;" style="text;align=left;verticalAlign=top;spacingLeft=4;spacingRight=4;overflow=hidden;rotatable=0;points=[[0,0.5],[1,0.5]];portConstraint=eastwest;rounded=0;shadow=0;html=0;" parent="98TtHMbzd4gQQStBklup-119" vertex="1">
          <mxGeometry y="126" width="760" height="26" as="geometry" />
        </mxCell>
        <mxCell id="98TtHMbzd4gQQStBklup-125" value="findAllByProductStatusAndProductCategoryCode(Integer productStatus, String productCategoryCode, Pageable pageable): Page&lt;Product&gt;" style="text;align=left;verticalAlign=top;spacingLeft=4;spacingRight=4;overflow=hidden;rotatable=0;points=[[0,0.5],[1,0.5]];portConstraint=eastwest;rounded=0;shadow=0;html=0;" parent="98TtHMbzd4gQQStBklup-119" vertex="1">
          <mxGeometry y="152" width="760" height="26" as="geometry" />
        </mxCell>
        <mxCell id="Q7E6lYtqht5gNRH_L15U-4" value="search(String query, Pageable pageable): Page&lt;Product&gt;" style="text;align=left;verticalAlign=top;spacingLeft=4;spacingRight=4;overflow=hidden;rotatable=0;points=[[0,0.5],[1,0.5]];portConstraint=eastwest;rounded=0;shadow=0;html=0;" parent="98TtHMbzd4gQQStBklup-119" vertex="1">
          <mxGeometry y="178" width="760" height="26" as="geometry" />
        </mxCell>
        <mxCell id="wsiXDVxzjsnh1ADCv6Yp-0" value="searchByProductStatus(Integer productStatus, String query, Pageable pageable): Page&lt;Product&gt;" style="text;align=left;verticalAlign=top;spacingLeft=4;spacingRight=4;overflow=hidden;rotatable=0;points=[[0,0.5],[1,0.5]];portConstraint=eastwest;rounded=0;shadow=0;html=0;" vertex="1" parent="98TtHMbzd4gQQStBklup-119">
          <mxGeometry y="204" width="760" height="26" as="geometry" />
        </mxCell>
        <mxCell id="Q7E6lYtqht5gNRH_L15U-5" value="offSale(String productCode): Product" style="text;align=left;verticalAlign=top;spacingLeft=4;spacingRight=4;overflow=hidden;rotatable=0;points=[[0,0.5],[1,0.5]];portConstraint=eastwest;rounded=0;shadow=0;html=0;" parent="98TtHMbzd4gQQStBklup-119" vertex="1">
          <mxGeometry y="230" width="760" height="26" as="geometry" />
        </mxCell>
        <mxCell id="98TtHMbzd4gQQStBklup-126" value="onSale(String productCode): Product" style="text;align=left;verticalAlign=top;spacingLeft=4;spacingRight=4;overflow=hidden;rotatable=0;points=[[0,0.5],[1,0.5]];portConstraint=eastwest;rounded=0;shadow=0;html=0;" parent="98TtHMbzd4gQQStBklup-119" vertex="1">
          <mxGeometry y="256" width="760" height="26" as="geometry" />
        </mxCell>
        <mxCell id="98TtHMbzd4gQQStBklup-135" value="update(String productCode, ProductForm productForm): Product" style="text;align=left;verticalAlign=top;spacingLeft=4;spacingRight=4;overflow=hidden;rotatable=0;points=[[0,0.5],[1,0.5]];portConstraint=eastwest;rounded=0;shadow=0;html=0;" parent="98TtHMbzd4gQQStBklup-119" vertex="1">
          <mxGeometry y="282" width="760" height="26" as="geometry" />
        </mxCell>
        <mxCell id="98TtHMbzd4gQQStBklup-139" value="create(ProductForm productForm): Product" style="text;align=left;verticalAlign=top;spacingLeft=4;spacingRight=4;overflow=hidden;rotatable=0;points=[[0,0.5],[1,0.5]];portConstraint=eastwest;rounded=0;shadow=0;html=0;" parent="98TtHMbzd4gQQStBklup-119" vertex="1">
          <mxGeometry y="308" width="760" height="26" as="geometry" />
        </mxCell>
        <mxCell id="98TtHMbzd4gQQStBklup-136" value="delete(String productCode): void" style="text;align=left;verticalAlign=top;spacingLeft=4;spacingRight=4;overflow=hidden;rotatable=0;points=[[0,0.5],[1,0.5]];portConstraint=eastwest;rounded=0;shadow=0;html=0;" parent="98TtHMbzd4gQQStBklup-119" vertex="1">
          <mxGeometry y="334" width="760" height="34" as="geometry" />
        </mxCell>
        <mxCell id="98TtHMbzd4gQQStBklup-192" value="OrderMain" style="swimlane;fontStyle=2;align=center;verticalAlign=top;childLayout=stackLayout;horizontal=1;startSize=26;horizontalStack=0;resizeParent=1;resizeLast=0;collapsible=1;marginBottom=0;rounded=0;shadow=0;strokeWidth=1;" parent="WIyWlLk6GJQsqaUBKTNV-1" vertex="1">
          <mxGeometry x="590" y="890" width="170" height="200" as="geometry">
            <mxRectangle x="230" y="140" width="160" height="26" as="alternateBounds" />
          </mxGeometry>
        </mxCell>
        <mxCell id="98TtHMbzd4gQQStBklup-193" value="orderId: Long" style="text;align=left;verticalAlign=top;spacingLeft=4;spacingRight=4;overflow=hidden;rotatable=0;points=[[0,0.5],[1,0.5]];portConstraint=eastwest;" parent="98TtHMbzd4gQQStBklup-192" vertex="1">
          <mxGeometry y="26" width="170" height="26" as="geometry" />
        </mxCell>
        <mxCell id="98TtHMbzd4gQQStBklup-194" value="userEmail: String" style="text;align=left;verticalAlign=top;spacingLeft=4;spacingRight=4;overflow=hidden;rotatable=0;points=[[0,0.5],[1,0.5]];portConstraint=eastwest;rounded=0;shadow=0;html=0;" parent="98TtHMbzd4gQQStBklup-192" vertex="1">
          <mxGeometry y="52" width="170" height="26" as="geometry" />
        </mxCell>
        <mxCell id="98TtHMbzd4gQQStBklup-195" value="orderAmount: BigDecimal" style="text;align=left;verticalAlign=top;spacingLeft=4;spacingRight=4;overflow=hidden;rotatable=0;points=[[0,0.5],[1,0.5]];portConstraint=eastwest;rounded=0;shadow=0;html=0;" parent="98TtHMbzd4gQQStBklup-192" vertex="1">
          <mxGeometry y="78" width="170" height="26" as="geometry" />
        </mxCell>
        <mxCell id="98TtHMbzd4gQQStBklup-197" value="orderStatus: Integer" style="text;align=left;verticalAlign=top;spacingLeft=4;spacingRight=4;overflow=hidden;rotatable=0;points=[[0,0.5],[1,0.5]];portConstraint=eastwest;rounded=0;shadow=0;html=0;" parent="98TtHMbzd4gQQStBklup-192" vertex="1">
          <mxGeometry y="104" width="170" height="26" as="geometry" />
        </mxCell>
        <mxCell id="98TtHMbzd4gQQStBklup-210" value="createTime: LocalDateTime" style="text;align=left;verticalAlign=top;spacingLeft=4;spacingRight=4;overflow=hidden;rotatable=0;points=[[0,0.5],[1,0.5]];portConstraint=eastwest;rounded=0;shadow=0;html=0;" parent="98TtHMbzd4gQQStBklup-192" vertex="1">
          <mxGeometry y="130" width="170" height="28" as="geometry" />
        </mxCell>
        <mxCell id="98TtHMbzd4gQQStBklup-211" value="updateTime: LocalDateTime" style="text;align=left;verticalAlign=top;spacingLeft=4;spacingRight=4;overflow=hidden;rotatable=0;points=[[0,0.5],[1,0.5]];portConstraint=eastwest;rounded=0;shadow=0;html=0;" parent="98TtHMbzd4gQQStBklup-192" vertex="1">
          <mxGeometry y="158" width="170" height="28" as="geometry" />
        </mxCell>
        <mxCell id="98TtHMbzd4gQQStBklup-201" value="" style="line;html=1;strokeWidth=1;align=left;verticalAlign=middle;spacingTop=-1;spacingLeft=3;spacingRight=3;rotatable=0;labelPosition=right;points=[];portConstraint=eastwest;" parent="98TtHMbzd4gQQStBklup-192" vertex="1">
          <mxGeometry y="186" width="170" height="8" as="geometry" />
        </mxCell>
        <mxCell id="98TtHMbzd4gQQStBklup-202" value="&lt;&lt;Interface&gt;&gt;&#xa;OrderMainService" style="swimlane;fontStyle=2;align=center;verticalAlign=top;childLayout=stackLayout;horizontal=1;startSize=40;horizontalStack=0;resizeParent=1;resizeLast=0;collapsible=1;marginBottom=0;rounded=0;shadow=0;strokeWidth=1;" parent="WIyWlLk6GJQsqaUBKTNV-1" vertex="1">
          <mxGeometry x="330" y="1130" width="690" height="180" as="geometry">
            <mxRectangle x="230" y="140" width="160" height="26" as="alternateBounds" />
          </mxGeometry>
        </mxCell>
        <mxCell id="98TtHMbzd4gQQStBklup-203" value="" style="line;html=1;strokeWidth=1;align=left;verticalAlign=middle;spacingTop=-1;spacingLeft=3;spacingRight=3;rotatable=0;labelPosition=right;points=[];portConstraint=eastwest;" parent="98TtHMbzd4gQQStBklup-202" vertex="1">
          <mxGeometry y="40" width="690" height="8" as="geometry" />
        </mxCell>
        <mxCell id="98TtHMbzd4gQQStBklup-204" value="findAll(String authenticationEmail, Boolean isCustomer, Pageable pageable): Page&lt;OrderMain&gt;" style="text;align=left;verticalAlign=top;spacingLeft=4;spacingRight=4;overflow=hidden;rotatable=0;points=[[0,0.5],[1,0.5]];portConstraint=eastwest;rounded=0;shadow=0;html=0;" parent="98TtHMbzd4gQQStBklup-202" vertex="1">
          <mxGeometry y="48" width="690" height="26" as="geometry" />
        </mxCell>
        <mxCell id="98TtHMbzd4gQQStBklup-205" value="findAllByStatus(Integer orderStatus, String authenticationEmail, Boolean isCustomer, Pageable pageable): Page&lt;OrderMain&gt;" style="text;align=left;verticalAlign=top;spacingLeft=4;spacingRight=4;overflow=hidden;rotatable=0;points=[[0,0.5],[1,0.5]];portConstraint=eastwest;rounded=0;shadow=0;html=0;" parent="98TtHMbzd4gQQStBklup-202" vertex="1">
          <mxGeometry y="74" width="690" height="26" as="geometry" />
        </mxCell>
        <mxCell id="98TtHMbzd4gQQStBklup-206" value="find(Long orderId, String authenticationEmail, Boolean isCustomer): OrderMain" style="text;align=left;verticalAlign=top;spacingLeft=4;spacingRight=4;overflow=hidden;rotatable=0;points=[[0,0.5],[1,0.5]];portConstraint=eastwest;rounded=0;shadow=0;html=0;" parent="98TtHMbzd4gQQStBklup-202" vertex="1">
          <mxGeometry y="100" width="690" height="26" as="geometry" />
        </mxCell>
        <mxCell id="98TtHMbzd4gQQStBklup-207" value="finish(Long orderId): OrderMain" style="text;align=left;verticalAlign=top;spacingLeft=4;spacingRight=4;overflow=hidden;rotatable=0;points=[[0,0.5],[1,0.5]];portConstraint=eastwest;rounded=0;shadow=0;html=0;" parent="98TtHMbzd4gQQStBklup-202" vertex="1">
          <mxGeometry y="126" width="690" height="26" as="geometry" />
        </mxCell>
        <mxCell id="98TtHMbzd4gQQStBklup-212" value="cancel(Long orderId, String authenticationEmail, Boolean isCustomer): OrderMain" style="text;align=left;verticalAlign=top;spacingLeft=4;spacingRight=4;overflow=hidden;rotatable=0;points=[[0,0.5],[1,0.5]];portConstraint=eastwest;rounded=0;shadow=0;html=0;" parent="98TtHMbzd4gQQStBklup-202" vertex="1">
          <mxGeometry y="152" width="690" height="26" as="geometry" />
        </mxCell>
        <mxCell id="98TtHMbzd4gQQStBklup-208" value="" style="endArrow=classic;dashed=1;html=1;rounded=0;exitX=0.5;exitY=1;exitDx=0;exitDy=0;endFill=1;entryX=0.5;entryY=0;entryDx=0;entryDy=0;" parent="WIyWlLk6GJQsqaUBKTNV-1" source="98TtHMbzd4gQQStBklup-192" target="98TtHMbzd4gQQStBklup-202" edge="1">
          <mxGeometry width="50" height="50" relative="1" as="geometry">
            <mxPoint x="744" y="1270" as="sourcePoint" />
            <mxPoint x="704" y="1274" as="targetPoint" />
          </mxGeometry>
        </mxCell>
        <mxCell id="98TtHMbzd4gQQStBklup-215" value="OrderDetail" style="swimlane;fontStyle=2;align=center;verticalAlign=top;childLayout=stackLayout;horizontal=1;startSize=26;horizontalStack=0;resizeParent=1;resizeLast=0;collapsible=1;marginBottom=0;rounded=0;shadow=0;strokeWidth=1;" parent="WIyWlLk6GJQsqaUBKTNV-1" vertex="1">
          <mxGeometry x="1204" y="1010" width="160" height="194" as="geometry">
            <mxRectangle x="230" y="140" width="160" height="26" as="alternateBounds" />
          </mxGeometry>
        </mxCell>
        <mxCell id="98TtHMbzd4gQQStBklup-216" value="orderDetailId: Long" style="text;align=left;verticalAlign=top;spacingLeft=4;spacingRight=4;overflow=hidden;rotatable=0;points=[[0,0.5],[1,0.5]];portConstraint=eastwest;" parent="98TtHMbzd4gQQStBklup-215" vertex="1">
          <mxGeometry y="26" width="160" height="26" as="geometry" />
        </mxCell>
        <mxCell id="98TtHMbzd4gQQStBklup-217" value="cartId: Long" style="text;align=left;verticalAlign=top;spacingLeft=4;spacingRight=4;overflow=hidden;rotatable=0;points=[[0,0.5],[1,0.5]];portConstraint=eastwest;rounded=0;shadow=0;html=0;" parent="98TtHMbzd4gQQStBklup-215" vertex="1">
          <mxGeometry y="52" width="160" height="26" as="geometry" />
        </mxCell>
        <mxCell id="98TtHMbzd4gQQStBklup-218" value="orderId: Long" style="text;align=left;verticalAlign=top;spacingLeft=4;spacingRight=4;overflow=hidden;rotatable=0;points=[[0,0.5],[1,0.5]];portConstraint=eastwest;rounded=0;shadow=0;html=0;" parent="98TtHMbzd4gQQStBklup-215" vertex="1">
          <mxGeometry y="78" width="160" height="26" as="geometry" />
        </mxCell>
        <mxCell id="98TtHMbzd4gQQStBklup-219" value="productCode: String" style="text;align=left;verticalAlign=top;spacingLeft=4;spacingRight=4;overflow=hidden;rotatable=0;points=[[0,0.5],[1,0.5]];portConstraint=eastwest;rounded=0;shadow=0;html=0;" parent="98TtHMbzd4gQQStBklup-215" vertex="1">
          <mxGeometry y="104" width="160" height="26" as="geometry" />
        </mxCell>
        <mxCell id="98TtHMbzd4gQQStBklup-224" value="productPrice: BigDecimal" style="text;align=left;verticalAlign=top;spacingLeft=4;spacingRight=4;overflow=hidden;rotatable=0;points=[[0,0.5],[1,0.5]];portConstraint=eastwest;rounded=0;shadow=0;html=0;" parent="98TtHMbzd4gQQStBklup-215" vertex="1">
          <mxGeometry y="130" width="160" height="28" as="geometry" />
        </mxCell>
        <mxCell id="98TtHMbzd4gQQStBklup-237" value="quantity: Integer" style="text;align=left;verticalAlign=top;spacingLeft=4;spacingRight=4;overflow=hidden;rotatable=0;points=[[0,0.5],[1,0.5]];portConstraint=eastwest;rounded=0;shadow=0;html=0;" parent="98TtHMbzd4gQQStBklup-215" vertex="1">
          <mxGeometry y="158" width="160" height="28" as="geometry" />
        </mxCell>
        <mxCell id="98TtHMbzd4gQQStBklup-225" value="" style="line;html=1;strokeWidth=1;align=left;verticalAlign=middle;spacingTop=-1;spacingLeft=3;spacingRight=3;rotatable=0;labelPosition=right;points=[];portConstraint=eastwest;" parent="98TtHMbzd4gQQStBklup-215" vertex="1">
          <mxGeometry y="186" width="160" height="8" as="geometry" />
        </mxCell>
        <mxCell id="98TtHMbzd4gQQStBklup-226" value="&lt;&lt;Interface&gt;&gt;&#xa;OrderDetailService" style="swimlane;fontStyle=2;align=center;verticalAlign=top;childLayout=stackLayout;horizontal=1;startSize=40;horizontalStack=0;resizeParent=1;resizeLast=0;collapsible=1;marginBottom=0;rounded=0;shadow=0;strokeWidth=1;" parent="WIyWlLk6GJQsqaUBKTNV-1" vertex="1">
          <mxGeometry x="1084" y="1237" width="400" height="110" as="geometry">
            <mxRectangle x="230" y="140" width="160" height="26" as="alternateBounds" />
          </mxGeometry>
        </mxCell>
        <mxCell id="98TtHMbzd4gQQStBklup-227" value="" style="line;html=1;strokeWidth=1;align=left;verticalAlign=middle;spacingTop=-1;spacingLeft=3;spacingRight=3;rotatable=0;labelPosition=right;points=[];portConstraint=eastwest;" parent="98TtHMbzd4gQQStBklup-226" vertex="1">
          <mxGeometry y="40" width="400" height="8" as="geometry" />
        </mxCell>
        <mxCell id="98TtHMbzd4gQQStBklup-228" value="update(String productCode, Integer quantity, User user): OrderDetail" style="text;align=left;verticalAlign=top;spacingLeft=4;spacingRight=4;overflow=hidden;rotatable=0;points=[[0,0.5],[1,0.5]];portConstraint=eastwest;rounded=0;shadow=0;html=0;" parent="98TtHMbzd4gQQStBklup-226" vertex="1">
          <mxGeometry y="48" width="400" height="26" as="geometry" />
        </mxCell>
        <mxCell id="98TtHMbzd4gQQStBklup-229" value="find(String productCode, User user): OrderDetail" style="text;align=left;verticalAlign=top;spacingLeft=4;spacingRight=4;overflow=hidden;rotatable=0;points=[[0,0.5],[1,0.5]];portConstraint=eastwest;rounded=0;shadow=0;html=0;" parent="98TtHMbzd4gQQStBklup-226" vertex="1">
          <mxGeometry y="74" width="400" height="26" as="geometry" />
        </mxCell>
        <mxCell id="98TtHMbzd4gQQStBklup-235" value="" style="endArrow=classic;dashed=1;html=1;rounded=0;exitX=0.5;exitY=1;exitDx=0;exitDy=0;endFill=1;entryX=0.5;entryY=0;entryDx=0;entryDy=0;" parent="WIyWlLk6GJQsqaUBKTNV-1" source="98TtHMbzd4gQQStBklup-215" target="98TtHMbzd4gQQStBklup-226" edge="1">
          <mxGeometry width="50" height="50" relative="1" as="geometry">
            <mxPoint x="1294" y="1450" as="sourcePoint" />
            <mxPoint x="1254" y="1454" as="targetPoint" />
          </mxGeometry>
        </mxCell>
        <mxCell id="98TtHMbzd4gQQStBklup-238" value="Subscription" style="swimlane;fontStyle=2;align=center;verticalAlign=top;childLayout=stackLayout;horizontal=1;startSize=26;horizontalStack=0;resizeParent=1;resizeLast=0;collapsible=1;marginBottom=0;rounded=0;shadow=0;strokeWidth=1;" parent="WIyWlLk6GJQsqaUBKTNV-1" vertex="1">
          <mxGeometry x="-270" y="40" width="180" height="142" as="geometry">
            <mxRectangle x="230" y="140" width="160" height="26" as="alternateBounds" />
          </mxGeometry>
        </mxCell>
        <mxCell id="98TtHMbzd4gQQStBklup-239" value="subscriptionId: Long" style="text;align=left;verticalAlign=top;spacingLeft=4;spacingRight=4;overflow=hidden;rotatable=0;points=[[0,0.5],[1,0.5]];portConstraint=eastwest;" parent="98TtHMbzd4gQQStBklup-238" vertex="1">
          <mxGeometry y="26" width="180" height="26" as="geometry" />
        </mxCell>
        <mxCell id="98TtHMbzd4gQQStBklup-240" value="userEmail: String" style="text;align=left;verticalAlign=top;spacingLeft=4;spacingRight=4;overflow=hidden;rotatable=0;points=[[0,0.5],[1,0.5]];portConstraint=eastwest;rounded=0;shadow=0;html=0;" parent="98TtHMbzd4gQQStBklup-238" vertex="1">
          <mxGeometry y="52" width="180" height="26" as="geometry" />
        </mxCell>
        <mxCell id="98TtHMbzd4gQQStBklup-246" value="productCategoryCode: String" style="text;align=left;verticalAlign=top;spacingLeft=4;spacingRight=4;overflow=hidden;rotatable=0;points=[[0,0.5],[1,0.5]];portConstraint=eastwest;rounded=0;shadow=0;html=0;" parent="98TtHMbzd4gQQStBklup-238" vertex="1">
          <mxGeometry y="78" width="180" height="28" as="geometry" />
        </mxCell>
        <mxCell id="98TtHMbzd4gQQStBklup-247" value="expTime: LocalDateTime" style="text;align=left;verticalAlign=top;spacingLeft=4;spacingRight=4;overflow=hidden;rotatable=0;points=[[0,0.5],[1,0.5]];portConstraint=eastwest;rounded=0;shadow=0;html=0;" parent="98TtHMbzd4gQQStBklup-238" vertex="1">
          <mxGeometry y="106" width="180" height="28" as="geometry" />
        </mxCell>
        <mxCell id="98TtHMbzd4gQQStBklup-250" value="" style="line;html=1;strokeWidth=1;align=left;verticalAlign=middle;spacingTop=-1;spacingLeft=3;spacingRight=3;rotatable=0;labelPosition=right;points=[];portConstraint=eastwest;" parent="98TtHMbzd4gQQStBklup-238" vertex="1">
          <mxGeometry y="134" width="180" height="8" as="geometry" />
        </mxCell>
        <mxCell id="98TtHMbzd4gQQStBklup-251" value="&lt;&lt;Interface&gt;&gt;&#xa;SubscriptionService" style="swimlane;fontStyle=2;align=center;verticalAlign=top;childLayout=stackLayout;horizontal=1;startSize=40;horizontalStack=0;resizeParent=1;resizeLast=0;collapsible=1;marginBottom=0;rounded=0;shadow=0;strokeWidth=1;" parent="WIyWlLk6GJQsqaUBKTNV-1" vertex="1">
          <mxGeometry x="-520" y="250" width="680" height="204" as="geometry">
            <mxRectangle x="230" y="140" width="160" height="26" as="alternateBounds" />
          </mxGeometry>
        </mxCell>
        <mxCell id="98TtHMbzd4gQQStBklup-252" value="" style="line;html=1;strokeWidth=1;align=left;verticalAlign=middle;spacingTop=-1;spacingLeft=3;spacingRight=3;rotatable=0;labelPosition=right;points=[];portConstraint=eastwest;" parent="98TtHMbzd4gQQStBklup-251" vertex="1">
          <mxGeometry y="40" width="680" height="8" as="geometry" />
        </mxCell>
        <mxCell id="98TtHMbzd4gQQStBklup-253" value="find(Long subscriptionId, String authenticationEmail, Boolean isCustomer): Subscription" style="text;align=left;verticalAlign=top;spacingLeft=4;spacingRight=4;overflow=hidden;rotatable=0;points=[[0,0.5],[1,0.5]];portConstraint=eastwest;rounded=0;shadow=0;html=0;" parent="98TtHMbzd4gQQStBklup-251" vertex="1">
          <mxGeometry y="48" width="680" height="26" as="geometry" />
        </mxCell>
        <mxCell id="98TtHMbzd4gQQStBklup-254" value="findByUserEmailAndProductCategoryCode(String userEmail, String productCategoryCode, Boolean isCustomer): Subscription" style="text;align=left;verticalAlign=top;spacingLeft=4;spacingRight=4;overflow=hidden;rotatable=0;points=[[0,0.5],[1,0.5]];portConstraint=eastwest;rounded=0;shadow=0;html=0;" parent="98TtHMbzd4gQQStBklup-251" vertex="1">
          <mxGeometry y="74" width="680" height="26" as="geometry" />
        </mxCell>
        <mxCell id="98TtHMbzd4gQQStBklup-271" value="findAll(String authenticationEmail, Boolean isCustomer, Pageable pageable): Page&lt;Subscription&gt;" style="text;align=left;verticalAlign=top;spacingLeft=4;spacingRight=4;overflow=hidden;rotatable=0;points=[[0,0.5],[1,0.5]];portConstraint=eastwest;rounded=0;shadow=0;html=0;" parent="98TtHMbzd4gQQStBklup-251" vertex="1">
          <mxGeometry y="100" width="680" height="26" as="geometry" />
        </mxCell>
        <mxCell id="98TtHMbzd4gQQStBklup-272" value="findActiveAll(String authenticationEmail, Boolean isCustomer, Pageable pageable): Page&lt;Subscription&gt;" style="text;align=left;verticalAlign=top;spacingLeft=4;spacingRight=4;overflow=hidden;rotatable=0;points=[[0,0.5],[1,0.5]];portConstraint=eastwest;rounded=0;shadow=0;html=0;" parent="98TtHMbzd4gQQStBklup-251" vertex="1">
          <mxGeometry y="126" width="680" height="26" as="geometry" />
        </mxCell>
        <mxCell id="98TtHMbzd4gQQStBklup-273" value="update(Long subscriptionId, SubscriptionUpdateForm subscriptionUpdateForm): Subscription" style="text;align=left;verticalAlign=top;spacingLeft=4;spacingRight=4;overflow=hidden;rotatable=0;points=[[0,0.5],[1,0.5]];portConstraint=eastwest;rounded=0;shadow=0;html=0;" parent="98TtHMbzd4gQQStBklup-251" vertex="1">
          <mxGeometry y="152" width="680" height="26" as="geometry" />
        </mxCell>
        <mxCell id="98TtHMbzd4gQQStBklup-275" value="delete(Long subscriptionId): void" style="text;align=left;verticalAlign=top;spacingLeft=4;spacingRight=4;overflow=hidden;rotatable=0;points=[[0,0.5],[1,0.5]];portConstraint=eastwest;rounded=0;shadow=0;html=0;" parent="98TtHMbzd4gQQStBklup-251" vertex="1">
          <mxGeometry y="178" width="680" height="26" as="geometry" />
        </mxCell>
        <mxCell id="98TtHMbzd4gQQStBklup-255" value="" style="endArrow=classic;dashed=1;html=1;rounded=0;exitX=0.5;exitY=1;exitDx=0;exitDy=0;endFill=1;entryX=0.5;entryY=0;entryDx=0;entryDy=0;" parent="WIyWlLk6GJQsqaUBKTNV-1" source="98TtHMbzd4gQQStBklup-238" target="98TtHMbzd4gQQStBklup-251" edge="1">
          <mxGeometry width="50" height="50" relative="1" as="geometry">
            <mxPoint x="-170" y="280" as="sourcePoint" />
            <mxPoint x="-210" y="284" as="targetPoint" />
          </mxGeometry>
        </mxCell>
        <mxCell id="98TtHMbzd4gQQStBklup-256" value="UserServiceImpl" style="rounded=0;whiteSpace=wrap;html=1;strokeColor=default;" parent="WIyWlLk6GJQsqaUBKTNV-1" vertex="1">
          <mxGeometry x="380" y="883" width="120" height="60" as="geometry" />
        </mxCell>
        <mxCell id="98TtHMbzd4gQQStBklup-260" value="CartServiceImpl" style="rounded=0;whiteSpace=wrap;html=1;strokeColor=default;" parent="WIyWlLk6GJQsqaUBKTNV-1" vertex="1">
          <mxGeometry x="-86" y="1177" width="120" height="60" as="geometry" />
        </mxCell>
        <mxCell id="98TtHMbzd4gQQStBklup-264" value="ProductCategoryServiceImpl" style="rounded=0;whiteSpace=wrap;html=1;strokeColor=default;" parent="WIyWlLk6GJQsqaUBKTNV-1" vertex="1">
          <mxGeometry x="840" y="545" width="200" height="60" as="geometry" />
        </mxCell>
        <mxCell id="98TtHMbzd4gQQStBklup-266" value="ProductServiceImpl" style="rounded=0;whiteSpace=wrap;html=1;strokeColor=default;" parent="WIyWlLk6GJQsqaUBKTNV-1" vertex="1">
          <mxGeometry x="1347" y="934" width="200" height="60" as="geometry" />
        </mxCell>
        <mxCell id="98TtHMbzd4gQQStBklup-268" value="OrderMainServiceImpl" style="rounded=0;whiteSpace=wrap;html=1;strokeColor=default;" parent="WIyWlLk6GJQsqaUBKTNV-1" vertex="1">
          <mxGeometry x="605" y="1340" width="140" height="60" as="geometry" />
        </mxCell>
        <mxCell id="98TtHMbzd4gQQStBklup-270" value="OrderDetailServiceImpl" style="rounded=0;whiteSpace=wrap;html=1;strokeColor=default;" parent="WIyWlLk6GJQsqaUBKTNV-1" vertex="1">
          <mxGeometry x="1204" y="1377" width="160" height="60" as="geometry" />
        </mxCell>
        <mxCell id="98TtHMbzd4gQQStBklup-277" value="SubscriptionServiceImpl" style="rounded=0;whiteSpace=wrap;html=1;strokeColor=default;" parent="WIyWlLk6GJQsqaUBKTNV-1" vertex="1">
          <mxGeometry x="-270" y="484" width="180" height="60" as="geometry" />
        </mxCell>
        <mxCell id="98TtHMbzd4gQQStBklup-269" value="" style="endArrow=block;dashed=1;html=1;rounded=0;entryX=0.5;entryY=1;entryDx=0;entryDy=0;endFill=0;" parent="WIyWlLk6GJQsqaUBKTNV-1" edge="1">
          <mxGeometry width="50" height="50" relative="1" as="geometry">
            <mxPoint x="939" y="545" as="sourcePoint" />
            <mxPoint x="939" y="515" as="targetPoint" />
          </mxGeometry>
        </mxCell>
        <mxCell id="98TtHMbzd4gQQStBklup-276" value="" style="endArrow=block;dashed=1;html=1;rounded=0;entryX=0.5;entryY=1;entryDx=0;entryDy=0;endFill=0;" parent="WIyWlLk6GJQsqaUBKTNV-1" edge="1">
          <mxGeometry width="50" height="50" relative="1" as="geometry">
            <mxPoint x="1446.5" y="935" as="sourcePoint" />
            <mxPoint x="1446.5" y="905" as="targetPoint" />
          </mxGeometry>
        </mxCell>
        <mxCell id="98TtHMbzd4gQQStBklup-263" value="" style="endArrow=block;dashed=1;html=1;rounded=0;entryX=0.5;entryY=1;entryDx=0;entryDy=0;endFill=0;" parent="WIyWlLk6GJQsqaUBKTNV-1" edge="1">
          <mxGeometry width="50" height="50" relative="1" as="geometry">
            <mxPoint x="673" y="1340" as="sourcePoint" />
            <mxPoint x="673" y="1310" as="targetPoint" />
          </mxGeometry>
        </mxCell>
        <mxCell id="98TtHMbzd4gQQStBklup-265" value="" style="endArrow=block;dashed=1;html=1;rounded=0;entryX=0.5;entryY=1;entryDx=0;entryDy=0;endFill=0;" parent="WIyWlLk6GJQsqaUBKTNV-1" edge="1">
          <mxGeometry width="50" height="50" relative="1" as="geometry">
            <mxPoint x="-26.309999999999945" y="1177" as="sourcePoint" />
            <mxPoint x="-26.309999999999945" y="1147" as="targetPoint" />
          </mxGeometry>
        </mxCell>
        <mxCell id="98TtHMbzd4gQQStBklup-293" value="" style="endArrow=block;dashed=1;html=1;rounded=0;entryX=0.5;entryY=1;entryDx=0;entryDy=0;endFill=0;" parent="WIyWlLk6GJQsqaUBKTNV-1" edge="1">
          <mxGeometry width="50" height="50" relative="1" as="geometry">
            <mxPoint x="1283.73" y="1377" as="sourcePoint" />
            <mxPoint x="1283.73" y="1347" as="targetPoint" />
          </mxGeometry>
        </mxCell>
        <mxCell id="3uzCZNnypf24E0InRr1k-0" value="" style="endArrow=block;dashed=1;html=1;rounded=0;entryX=0.5;entryY=1;entryDx=0;entryDy=0;endFill=0;" parent="WIyWlLk6GJQsqaUBKTNV-1" edge="1">
          <mxGeometry width="50" height="50" relative="1" as="geometry">
            <mxPoint x="-179.26999999999998" y="484" as="sourcePoint" />
            <mxPoint x="-179.26999999999998" y="454" as="targetPoint" />
          </mxGeometry>
        </mxCell>
        <mxCell id="3uzCZNnypf24E0InRr1k-6" value="" style="endArrow=none;html=1;rounded=0;edgeStyle=orthogonalEdgeStyle;exitX=1;exitY=0.25;exitDx=0;exitDy=0;" parent="WIyWlLk6GJQsqaUBKTNV-1" source="98TtHMbzd4gQQStBklup-75" edge="1">
          <mxGeometry width="50" height="50" relative="1" as="geometry">
            <mxPoint x="154" y="833" as="sourcePoint" />
            <mxPoint x="360" y="203" as="targetPoint" />
            <Array as="points">
              <mxPoint x="54" y="838" />
              <mxPoint x="180" y="838" />
              <mxPoint x="180" y="203" />
            </Array>
          </mxGeometry>
        </mxCell>
        <mxCell id="3uzCZNnypf24E0InRr1k-8" value="1" style="text;html=1;strokeColor=none;fillColor=none;align=center;verticalAlign=middle;whiteSpace=wrap;rounded=0;" parent="WIyWlLk6GJQsqaUBKTNV-1" vertex="1">
          <mxGeometry x="284" y="203" width="60" height="30" as="geometry" />
        </mxCell>
        <mxCell id="3uzCZNnypf24E0InRr1k-9" value="0..1" style="text;html=1;strokeColor=none;fillColor=none;align=center;verticalAlign=middle;whiteSpace=wrap;rounded=0;" parent="WIyWlLk6GJQsqaUBKTNV-1" vertex="1">
          <mxGeometry x="44" y="808" width="60" height="30" as="geometry" />
        </mxCell>
        <mxCell id="3uzCZNnypf24E0InRr1k-12" value="" style="endArrow=none;html=1;rounded=0;edgeStyle=orthogonalEdgeStyle;entryX=0.75;entryY=1;entryDx=0;entryDy=0;" parent="WIyWlLk6GJQsqaUBKTNV-1" target="3uzCZNnypf24E0InRr1k-15" edge="1">
          <mxGeometry width="50" height="50" relative="1" as="geometry">
            <mxPoint x="54" y="863" as="sourcePoint" />
            <mxPoint x="1054" y="953" as="targetPoint" />
            <Array as="points">
              <mxPoint x="230" y="863" />
              <mxPoint x="230" y="1440" />
              <mxPoint x="1040" y="1440" />
              <mxPoint x="1040" y="1080" />
            </Array>
          </mxGeometry>
        </mxCell>
        <mxCell id="3uzCZNnypf24E0InRr1k-14" value="0..*" style="text;html=1;strokeColor=none;fillColor=none;align=center;verticalAlign=middle;whiteSpace=wrap;rounded=0;" parent="WIyWlLk6GJQsqaUBKTNV-1" vertex="1">
          <mxGeometry x="44" y="868" width="60" height="30" as="geometry" />
        </mxCell>
        <mxCell id="3uzCZNnypf24E0InRr1k-15" value="0..*" style="text;html=1;strokeColor=none;fillColor=none;align=center;verticalAlign=middle;whiteSpace=wrap;rounded=0;" parent="WIyWlLk6GJQsqaUBKTNV-1" vertex="1">
          <mxGeometry x="1154" y="1050" width="60" height="30" as="geometry" />
        </mxCell>
        <mxCell id="3uzCZNnypf24E0InRr1k-16" value="" style="endArrow=none;html=1;rounded=0;entryX=0.006;entryY=0.042;entryDx=0;entryDy=0;entryPerimeter=0;edgeStyle=orthogonalEdgeStyle;" parent="WIyWlLk6GJQsqaUBKTNV-1" target="98TtHMbzd4gQQStBklup-215" edge="1">
          <mxGeometry width="50" height="50" relative="1" as="geometry">
            <mxPoint x="760" y="906" as="sourcePoint" />
            <mxPoint x="884" y="880" as="targetPoint" />
            <Array as="points">
              <mxPoint x="1040" y="906" />
              <mxPoint x="1040" y="1018" />
            </Array>
          </mxGeometry>
        </mxCell>
        <mxCell id="3uzCZNnypf24E0InRr1k-17" value="1" style="text;html=1;strokeColor=none;fillColor=none;align=center;verticalAlign=middle;whiteSpace=wrap;rounded=0;" parent="WIyWlLk6GJQsqaUBKTNV-1" vertex="1">
          <mxGeometry x="740" y="879" width="60" height="30" as="geometry" />
        </mxCell>
        <mxCell id="3uzCZNnypf24E0InRr1k-18" value="1..*" style="text;html=1;strokeColor=none;fillColor=none;align=center;verticalAlign=middle;whiteSpace=wrap;rounded=0;" parent="WIyWlLk6GJQsqaUBKTNV-1" vertex="1">
          <mxGeometry x="1154" y="990" width="60" height="30" as="geometry" />
        </mxCell>
        <mxCell id="98TtHMbzd4gQQStBklup-257" value="" style="endArrow=block;dashed=1;html=1;rounded=0;entryX=0.5;entryY=1;entryDx=0;entryDy=0;endFill=0;" parent="WIyWlLk6GJQsqaUBKTNV-1" edge="1">
          <mxGeometry width="50" height="50" relative="1" as="geometry">
            <mxPoint x="440.5" y="880" as="sourcePoint" />
            <mxPoint x="440.5" y="850" as="targetPoint" />
          </mxGeometry>
        </mxCell>
      </root>
    </mxGraphModel>
  </diagram>
</mxfile>
